<?xml version="1.0" standalone="no"?>
<!DOCTYPE svg PUBLIC "-//W3C//DTD SVG 20010904//EN"
 "http://www.w3.org/TR/2001/REC-SVG-20010904/DTD/svg10.dtd">
<svg version="1.0" xmlns="http://www.w3.org/2000/svg"
 width="900.000000pt" height="672.000000pt" viewBox="0 0 900.000000 672.000000"
 preserveAspectRatio="xMidYMid meet">
<metadata>
Created by potrace 1.10, written by Peter Selinger 2001-2011
</metadata>
<g transform="translate(0.000000,672.000000) scale(0.100000,-0.100000)"
fill="#1d3557" stroke="none">
<path d="M4416 6059 c-16 -10 -18 -22 -15 -98 l4 -86 -45 -6 c-25 -3 -58 -12
-75 -19 -64 -30 -165 -120 -186 -165 -5 -11 -13 -27 -18 -35 -22 -37 -41 -120
-41 -175 0 -60 26 -155 49 -178 6 -6 11 -16 11 -23 0 -14 105 -112 134 -125
12 -5 28 -13 36 -18 48 -27 80 -41 97 -41 10 -1 41 -9 68 -19 151 -55 255
-131 272 -200 12 -46 2 -119 -22 -155 -23 -34 -72 -69 -125 -89 -50 -18 -115
-23 -125 -8 -3 5 -18 12 -35 16 -16 4 -45 25 -67 49 -48 55 -76 70 -103 56
-11 -6 -23 -22 -26 -36 -7 -29 13 -112 33 -135 7 -8 13 -19 13 -23 0 -16 76
-78 102 -83 47 -9 54 -29 47 -139 -4 -55 -4 -102 0 -106 3 -4 47 -10 96 -14
119 -9 120 -7 112 125 -7 107 -5 111 48 111 13 0 27 5 30 10 3 6 13 10 21 10
36 0 158 112 186 172 43 91 48 110 48 201 0 66 -4 99 -15 113 -8 10 -15 27
-15 38 0 47 -124 168 -215 210 -22 11 -49 24 -60 29 -11 6 -38 14 -60 18 -58
11 -125 30 -162 45 -17 8 -37 14 -45 14 -35 0 -118 108 -118 153 0 60 74 177
112 177 7 0 24 7 36 16 16 11 46 16 102 16 73 0 84 -3 125 -31 25 -17 48 -31
51 -31 3 0 17 -9 31 -20 27 -21 78 -26 103 -10 11 7 15 27 14 72 -1 58 -4 67
-35 100 -44 47 -117 98 -140 98 -38 0 -49 26 -44 113 6 108 -2 117 -99 117
-39 0 -79 -5 -90 -11z m130 -206 c9 -21 25 -48 36 -60 11 -11 18 -29 16 -40
-3 -16 -15 -18 -111 -19 -68 0 -112 -5 -119 -12 -7 -7 -20 -12 -30 -12 -21 0
-101 -78 -123 -120 -18 -35 -30 -38 -45 -9 -9 16 -8 25 3 42 31 46 106 116
143 133 22 10 67 44 102 76 77 71 106 76 128 21z m135 -761 c49 -25 109 -87
109 -113 0 -12 8 -23 19 -26 15 -4 22 -19 29 -61 6 -34 7 -61 1 -66 -5 -6 -9
-18 -9 -28 0 -11 -7 -18 -20 -18 -21 0 -29 33 -10 45 15 9 12 25 -5 25 -11 0
-15 11 -15 38 0 25 -7 43 -20 55 -11 9 -20 22 -20 29 0 22 -77 98 -98 98 -26
0 -39 19 -21 31 19 12 20 12 60 -9z m146 -347 c-4 -8 -13 -15 -22 -15 -21 0
-19 28 3 32 22 5 26 2 19 -17z m-27 -58 c0 -20 -22 -46 -50 -60 -14 -7 -34
-27 -45 -44 -11 -17 -27 -33 -36 -36 -28 -8 -10 34 32 73 20 19 40 45 44 58 7
24 55 32 55 9z m-202 -164 c-6 -21 -19 -49 -30 -63 -19 -25 -66 -60 -80 -60
-12 0 -49 80 -43 91 4 5 1 17 -6 25 -6 8 -10 17 -7 19 4 4 54 11 165 24 8 1 9
-9 1 -36z"/>
<path d="M3633 6038 c-27 -43 -57 -161 -48 -194 6 -26 150 -152 183 -160 16
-4 28 0 42 17 10 13 19 28 20 33 0 4 14 25 30 46 17 21 30 45 30 53 0 8 -24
32 -52 54 -29 22 -80 68 -113 101 -61 63 -78 72 -92 50z"/>
<path d="M5230 5975 c-7 -8 -20 -15 -30 -15 -10 0 -23 -7 -30 -15 -7 -8 -20
-15 -30 -15 -10 0 -23 -7 -30 -15 -7 -8 -18 -15 -24 -15 -19 -1 -56 -37 -56
-55 0 -14 28 -57 88 -133 l18 -23 110 57 c60 31 123 60 139 63 23 5 31 13 33
33 3 21 -9 39 -57 87 -64 64 -104 78 -131 46z"/>
<path d="M3320 5213 c1 -16 7 -39 15 -53 8 -14 14 -36 15 -50 0 -14 9 -39 19
-56 23 -38 77 -54 180 -54 l71 0 0 100 c0 91 -2 100 -21 111 -12 6 -37 9 -55
6 -18 -3 -59 1 -91 8 -32 8 -75 14 -95 15 -35 0 -38 -2 -38 -27z"/>
<path d="M5332 5228 c-17 -17 -16 -182 1 -195 15 -12 256 -45 269 -37 6 4 7
36 2 83 -8 89 -31 131 -72 131 -15 0 -49 7 -76 15 -59 18 -108 19 -124 3z"/>
<path d="M5819 4792 c-82 -15 -166 -96 -200 -193 -14 -39 -16 -85 -12 -317 l4
-271 -86 0 c-65 1 -91 -3 -104 -15 -10 -9 -22 -16 -28 -16 -6 0 -105 -96 -220
-212 -116 -117 -280 -280 -364 -363 -151 -147 -161 -161 -212 -278 -25 -56
-25 -426 0 -504 17 -56 40 -72 80 -59 48 16 58 68 78 401 4 53 12 99 20 112 8
12 15 28 15 35 0 8 31 46 70 87 38 40 116 123 172 184 56 62 114 124 128 138
14 14 39 41 55 60 17 19 59 56 95 84 57 43 105 84 172 148 40 38 121 15 129
-38 7 -47 -17 -78 -192 -248 -159 -155 -180 -180 -177 -204 4 -39 48 -42 108
-9 25 14 56 31 70 37 14 5 39 21 57 35 17 13 35 24 40 24 4 0 24 15 44 33 20
17 64 55 97 82 33 28 75 73 93 100 32 47 34 55 34 135 0 71 -4 91 -23 122 -12
20 -28 38 -35 41 -16 5 -12 73 7 119 9 21 16 52 16 70 0 18 7 68 15 111 8 44
15 134 15 206 l0 127 30 29 c40 38 94 41 129 6 l23 -23 -1 -536 c-2 -660 12
-597 -175 -792 -61 -63 -166 -173 -233 -245 -237 -254 -222 -235 -223 -284 0
-62 30 -141 57 -147 35 -9 58 12 78 71 17 48 32 67 115 143 158 145 456 445
473 477 84 158 86 176 79 590 -3 161 9 517 22 650 11 113 -47 221 -149 277
-35 19 -133 29 -186 20z"/>
<path d="M2975 4772 c-66 -22 -154 -110 -174 -172 -11 -36 -15 -156 -18 -580
-4 -564 -2 -594 43 -683 8 -16 14 -33 14 -37 0 -25 103 -149 212 -255 141
-137 297 -285 351 -332 20 -18 37 -40 37 -50 0 -10 9 -37 20 -61 17 -37 23
-43 47 -40 21 2 32 14 51 52 13 27 27 66 29 87 5 36 2 42 -78 131 -129 142
-202 220 -348 369 -123 127 -149 158 -166 199 -4 8 -13 31 -22 51 -28 68 -18
953 12 1104 3 12 19 28 38 37 29 14 36 14 60 2 50 -27 53 -47 47 -314 -3 -135
-1 -290 3 -345 6 -71 4 -111 -4 -137 -10 -30 -9 -50 1 -95 7 -32 18 -67 23
-78 6 -11 69 -81 141 -155 72 -74 152 -158 178 -187 26 -28 61 -59 77 -69 29
-17 31 -17 51 1 11 10 20 23 20 28 0 23 -116 236 -140 257 -3 3 -27 32 -52 65
-25 33 -58 71 -73 85 -15 14 -35 41 -46 62 -17 33 -17 39 -3 67 20 39 51 61
87 61 24 0 66 -38 265 -238 352 -355 459 -469 481 -515 14 -29 22 -72 26 -132
16 -254 27 -345 47 -370 19 -25 52 -32 75 -17 7 4 21 28 32 52 19 41 21 66 21
257 0 214 -3 239 -41 303 -5 8 -14 26 -19 39 -6 13 -47 60 -93 105 -76 75
-391 375 -406 386 -4 3 -29 34 -56 70 -89 118 -198 230 -223 230 -9 0 -36 7
-59 15 -38 13 -48 13 -90 -1 -27 -9 -58 -22 -70 -30 -28 -17 -56 -18 -49 -1 6
16 21 68 41 144 12 46 16 118 18 275 l2 213 -38 49 c-46 60 -62 72 -133 97
-67 22 -83 23 -149 1z"/>
<path d="M5114 4523 c-52 -77 -64 -105 -57 -132 3 -12 8 -21 12 -21 3 0 18
-10 31 -22 165 -149 182 -161 198 -151 26 16 59 84 65 136 6 44 4 50 -30 88
-55 61 -148 129 -176 129 -16 0 -31 -10 -43 -27z"/>
<path d="M3760 4515 c-23 -13 -37 -20 -65 -31 -5 -2 -17 -8 -25 -12 -8 -5 -32
-16 -53 -25 -79 -35 -107 -51 -107 -63 0 -6 31 -39 69 -73 56 -50 75 -61 104
-61 19 0 40 7 47 15 7 8 21 15 31 15 10 0 21 4 24 10 3 5 28 20 56 32 67 31
71 52 24 125 -35 54 -61 83 -74 83 -3 0 -17 -7 -31 -15z"/>
<path d="M2462 1724 c-8 -6 -12 -16 -8 -22 3 -6 6 -138 6 -294 -1 -156 -1
-292 -1 -302 0 -26 17 -34 70 -34 70 0 72 4 65 129 l-7 109 121 0 121 0 48 48
c47 47 73 106 73 165 -1 61 -54 149 -112 185 -29 18 -54 21 -197 24 -109 2
-169 -1 -179 -8z m308 -112 c42 -20 59 -70 44 -129 -14 -54 -45 -71 -139 -75
l-80 -3 -3 99 c-1 55 0 106 2 113 8 20 133 17 176 -5z"/>
<path d="M3222 1724 c-13 -9 -22 -26 -22 -42 0 -15 -7 -36 -15 -46 -8 -11 -15
-28 -15 -37 0 -10 -6 -30 -14 -46 -13 -26 -25 -56 -62 -155 -48 -130 -58 -155
-92 -229 -12 -25 -23 -56 -24 -70 -3 -23 0 -24 55 -24 32 -1 61 2 65 5 11 7
42 92 42 115 0 11 7 28 14 38 12 15 28 17 126 15 127 -3 117 3 146 -93 10 -33
21 -64 25 -68 10 -13 126 -20 133 -8 4 5 -6 38 -22 73 -16 35 -37 83 -46 108
-10 25 -24 58 -32 73 -8 16 -14 36 -14 46 0 9 -7 26 -15 37 -8 10 -15 28 -15
40 0 11 -7 29 -15 40 -8 10 -15 28 -15 40 0 11 -7 29 -15 40 -8 10 -15 28 -15
39 0 11 -7 29 -15 39 -8 11 -15 30 -15 43 0 41 -82 59 -128 27z m86 -201 c14
-48 35 -109 54 -150 17 -35 2 -43 -81 -43 -100 0 -106 7 -75 78 13 30 24 63
24 73 0 10 5 21 10 24 6 3 10 15 10 26 0 11 5 29 11 40 15 28 31 12 47 -48z"/>
<path d="M3590 1721 c0 -11 3 -21 8 -23 8 -3 45 -55 55 -78 4 -8 16 -28 27
-45 10 -16 31 -52 45 -80 14 -27 34 -63 45 -80 11 -16 24 -40 29 -52 5 -11 15
-24 21 -28 8 -5 11 -45 9 -124 -2 -64 0 -122 4 -128 8 -12 100 -13 112 -1 4 4
6 61 6 127 -1 77 2 122 9 126 6 4 16 17 21 28 5 12 19 38 30 57 28 45 76 129
89 155 6 11 19 34 30 50 11 17 24 40 30 53 5 12 14 22 20 22 5 0 10 9 10 20 0
18 -7 20 -62 20 -35 0 -68 -4 -73 -8 -13 -9 -133 -251 -137 -277 -5 -32 -50
-27 -59 6 -9 36 -121 262 -134 271 -5 4 -38 8 -72 8 -55 0 -63 -2 -63 -19z"/>
<path d="M4610 1731 c-81 -17 -145 -80 -155 -153 -9 -65 2 -122 29 -147 30
-28 95 -61 121 -61 11 -1 31 -7 45 -15 14 -8 35 -14 47 -15 35 0 92 -32 100
-54 21 -63 -15 -96 -104 -96 -56 0 -77 6 -144 39 l-78 40 -22 -43 c-23 -47
-23 -75 1 -86 8 -4 26 -12 39 -19 37 -20 162 -51 206 -51 49 0 135 29 175 59
17 12 39 41 50 66 57 125 -17 225 -195 266 -113 25 -160 59 -149 108 14 58 77
77 164 50 34 -10 71 -26 83 -34 32 -22 47 -18 58 15 6 17 15 30 20 30 5 0 9
10 9 23 0 23 -4 26 -85 63 -37 16 -167 25 -215 15z"/>
<path d="M5410 1700 c-11 -21 -20 -48 -20 -58 0 -10 -7 -27 -15 -38 -8 -10
-15 -29 -15 -41 0 -12 -4 -24 -10 -28 -5 -3 -14 -20 -19 -38 -5 -18 -19 -57
-31 -87 -12 -30 -25 -66 -30 -80 -5 -14 -18 -50 -30 -80 -12 -30 -24 -64 -27
-75 -3 -11 -12 -28 -20 -37 -8 -9 -13 -27 -11 -40 3 -21 8 -23 56 -24 45 -1
56 3 72 24 11 14 20 37 20 53 0 15 4 30 9 34 5 3 12 19 16 35 l7 30 116 0 117
0 18 -49 c9 -27 17 -55 17 -63 0 -9 9 -26 20 -40 16 -21 27 -25 72 -24 67 1
70 13 29 101 -17 36 -31 69 -31 75 0 5 -6 24 -14 42 -15 35 -20 49 -92 241 -9
23 -22 56 -28 72 -7 17 -19 48 -26 70 -18 58 -27 65 -81 65 -47 0 -49 -2 -69
-40z m102 -174 c4 -27 12 -54 17 -59 6 -6 11 -20 11 -32 0 -12 7 -30 15 -41 8
-10 15 -29 15 -41 0 -22 -3 -23 -90 -23 -101 0 -105 4 -76 72 8 18 21 49 30
70 9 20 16 47 16 60 0 28 19 50 40 46 9 -2 17 -20 22 -52z"/>
<path d="M6072 1733 c-8 -3 -7 -637 2 -651 9 -14 104 -12 116 3 7 8 10 53 8
117 l-3 103 70 2 c39 1 91 2 117 2 43 1 52 6 95 49 89 90 97 197 21 294 -55
70 -74 76 -256 80 -89 1 -166 2 -170 1z m293 -118 c38 -15 55 -46 55 -100 0
-82 -29 -102 -150 -107 l-75 -3 -3 99 c-1 55 0 106 2 113 7 18 127 17 171 -2z"/>
<path d="M4247 1214 c-9 -9 -9 -90 -1 -122 6 -20 12 -23 53 -20 l46 3 0 70 0
70 -45 3 c-25 2 -49 0 -53 -4z"/>
<path d="M5016 1204 c-11 -28 -6 -100 7 -118 9 -13 23 -17 52 -14 l40 3 3 73
3 72 -49 0 c-36 0 -52 -4 -56 -16z"/>
<path d="M5842 1148 c3 -72 3 -73 32 -76 15 -2 39 -1 52 2 22 6 24 11 24 76
l0 70 -55 0 -56 0 3 -72z"/>
<path d="M6622 1148 c3 -72 3 -73 32 -76 15 -2 39 -1 52 2 22 6 24 11 24 76
l0 70 -55 0 -56 0 3 -72z"/>
<path d="M682 758 c-13 -13 -17 -254 -4 -274 10 -16 45 -25 61 -15 11 7 9 14
-9 39 -22 29 -23 37 -17 130 5 72 3 103 -6 116 -10 13 -15 14 -25 4z"/>
<path d="M1516 754 c-12 -31 -6 -44 19 -44 25 0 31 13 19 44 -3 9 -12 16 -19
16 -7 0 -16 -7 -19 -16z"/>
<path d="M5450 750 c-6 -11 -10 -28 -9 -38 1 -9 1 -26 0 -36 -1 -18 -2 -18
-19 -3 -26 24 -56 21 -91 -9 -28 -23 -31 -31 -31 -84 0 -54 3 -60 35 -89 39
-34 61 -38 90 -17 14 10 26 11 43 5 31 -12 45 -3 32 21 -5 10 -10 70 -10 133
0 87 -3 117 -14 126 -12 10 -17 8 -26 -9z m-16 -125 c49 -75 -29 -158 -83 -89
-28 35 -26 58 4 89 33 32 58 32 79 0z"/>
<path d="M5624 745 c-7 -29 9 -47 33 -38 20 8 12 57 -9 61 -12 2 -19 -5 -24
-23z"/>
<path d="M6347 763 c-4 -3 -7 -17 -7 -30 0 -18 5 -23 25 -23 25 0 31 13 19 44
-6 16 -26 21 -37 9z"/>
<path d="M6615 750 c-8 -25 1 -40 25 -40 25 0 33 15 20 40 -14 26 -37 26 -45
0z"/>
<path d="M7929 752 c-9 -9 -19 -29 -23 -44 -3 -16 -11 -28 -16 -28 -15 0 -12
-27 4 -33 11 -4 13 -19 9 -65 -7 -71 2 -112 22 -112 18 0 18 3 19 100 1 70 3
75 24 78 28 4 29 29 2 34 -28 4 -27 22 2 28 16 4 24 14 26 33 3 24 0 27 -25
26 -15 0 -35 -8 -44 -17z"/>
<path d="M2119 748 c-3 -25 3 -273 6 -276 2 -2 12 2 23 9 17 10 23 10 37 -4 9
-9 27 -17 40 -17 24 0 85 50 85 70 0 20 19 9 39 -24 26 -41 64 -53 98 -31 19
13 27 14 39 4 23 -19 27 -5 25 81 -2 67 -6 85 -23 106 -35 40 -128 28 -128
-16 0 -21 24 -27 35 -10 10 17 44 11 65 -10 29 -29 17 -40 -46 -40 -41 0 -54
-4 -54 -15 0 -8 -7 -15 -15 -15 -8 0 -15 9 -15 20 0 24 -26 67 -55 92 -25 21
-52 22 -89 3 l-28 -15 6 36 c5 22 3 41 -5 50 -14 17 -39 18 -40 2z m143 -121
c30 -45 6 -117 -38 -117 -29 0 -63 35 -64 63 0 11 10 32 21 49 18 24 26 28 48
23 14 -4 29 -12 33 -18z m206 -69 c9 -9 7 -17 -10 -35 -28 -30 -58 -30 -66 0
-8 29 -7 31 20 39 35 9 43 9 56 -4z"/>
<path d="M3102 747 c-7 -8 -9 -29 -5 -50 l6 -37 -29 15 c-52 27 -84 14 -129
-50 -13 -19 -15 -19 -50 23 -49 56 -90 58 -140 6 -28 -29 -35 -43 -35 -76 0
-35 6 -47 39 -80 48 -46 79 -49 123 -9 28 25 30 31 16 36 -10 4 -27 0 -40 -9
-12 -9 -28 -16 -35 -16 -17 0 -66 47 -56 53 5 3 41 7 80 8 72 2 103 -9 103
-36 0 -19 61 -65 86 -65 13 0 29 7 38 15 17 17 36 20 36 5 0 -5 6 -10 14 -10
11 0 15 28 18 133 2 72 2 138 0 145 -5 16 -27 15 -40 -1z m-238 -119 c21 -30
12 -38 -43 -38 -58 0 -65 6 -43 36 22 30 66 32 86 2z m214 -3 c12 -14 22 -35
22 -48 -1 -29 -33 -67 -58 -67 -22 0 -62 43 -62 66 0 24 23 63 39 67 31 9 38
7 59 -18z"/>
<path d="M7458 744 c-2 -9 -2 -65 0 -123 3 -93 6 -111 25 -134 16 -20 28 -25
45 -21 28 8 28 21 1 43 -19 15 -22 27 -20 97 1 43 4 89 8 102 3 12 0 29 -7 37
-17 20 -48 19 -52 -1z"/>
<path d="M404 733 c-3 -10 -12 -31 -19 -48 -35 -78 -45 -104 -45 -113 0 -5 -7
-15 -15 -22 -8 -7 -15 -28 -15 -46 0 -27 4 -34 20 -34 13 0 22 9 26 28 10 41
33 62 70 62 44 0 64 -9 64 -29 0 -26 29 -61 51 -61 21 0 25 20 10 48 -16 28
-52 113 -85 195 -16 40 -52 52 -62 20z m46 -88 c25 -41 20 -55 -20 -55 -29 0
-53 21 -32 28 7 2 12 14 12 26 0 20 7 36 16 36 1 0 12 -16 24 -35z"/>
<path d="M1399 738 c-1 -7 -3 -20 -4 -28 0 -8 -5 -23 -9 -33 -5 -11 -4 -23 3
-30 6 -6 11 -43 11 -84 0 -66 2 -74 25 -89 27 -18 65 -11 65 12 0 8 -11 19
-25 24 -22 8 -25 15 -25 60 0 27 -1 53 -2 58 -2 4 7 11 20 17 27 12 29 31 3
38 -12 3 -21 15 -23 33 -3 29 -37 48 -39 22z"/>
<path d="M7787 738 c-12 -6 -16 -16 -12 -29 4 -11 2 -19 -4 -19 -14 0 -14 -37
-1 -45 6 -3 10 -39 10 -78 0 -40 4 -77 8 -84 14 -21 57 -26 73 -7 11 13 11 18
1 22 -30 10 -42 35 -42 88 0 39 4 56 15 60 8 4 15 12 15 19 0 7 -7 15 -15 19
-8 3 -15 16 -15 30 0 30 -10 38 -33 24z"/>
<path d="M4667 698 c-3 -24 -2 -47 3 -51 4 -5 6 -35 3 -67 -5 -49 -2 -63 16
-89 15 -20 31 -31 47 -31 34 0 43 28 16 49 -31 23 -39 127 -11 136 23 8 25 31
4 39 -8 3 -15 17 -15 31 0 21 -5 25 -29 25 -26 0 -29 -4 -34 -42z"/>
<path d="M795 663 c-27 -24 -30 -32 -30 -84 0 -50 4 -60 29 -83 44 -42 77 -44
120 -6 34 30 36 36 36 90 0 53 -3 61 -31 84 -40 34 -85 34 -124 -1z m100 -38
c31 -32 32 -61 3 -92 -27 -29 -55 -29 -79 -1 -28 31 -24 72 7 97 34 27 38 26
69 -4z"/>
<path d="M1014 656 c-29 -29 -34 -41 -34 -80 0 -39 5 -50 37 -81 43 -41 78
-45 116 -12 44 37 32 67 -17 41 -38 -19 -52 -18 -76 6 -40 40 -15 110 39 110
12 0 33 -7 46 -16 23 -15 25 -15 31 0 10 27 -33 66 -74 66 -25 0 -43 -9 -68
-34z"/>
<path d="M1218 679 c-10 -5 -18 -19 -18 -31 0 -15 4 -18 18 -13 37 16 68 17
81 1 25 -30 6 -46 -53 -46 -55 0 -55 0 -61 -34 -13 -67 32 -107 96 -86 21 7
47 10 59 7 19 -5 21 -2 16 16 -3 12 -6 48 -6 79 0 46 -5 62 -26 87 -27 33 -71
41 -106 20z m82 -119 c17 -11 6 -36 -23 -54 -20 -13 -50 2 -55 28 -5 25 50 44
78 26z"/>
<path d="M1616 648 c-51 -59 -47 -103 16 -160 43 -39 73 -36 120 12 43 46 49
83 21 128 -28 44 -54 62 -89 62 -26 0 -40 -9 -68 -42z m115 -30 c24 -30 24
-57 -3 -85 -31 -33 -62 -30 -86 9 -19 29 -19 33 -4 65 12 26 22 33 45 33 18 0
36 -9 48 -22z"/>
<path d="M1884 675 c-7 -17 -34 -21 -34 -5 0 6 -6 10 -14 10 -10 0 -15 -23
-18 -92 -5 -104 -3 -120 21 -116 13 3 16 17 16 70 0 57 3 69 24 87 27 24 30
24 51 11 10 -6 14 -30 15 -87 0 -78 0 -78 28 -81 l27 -3 0 76 c0 73 -14 115
-45 137 -18 13 -65 9 -71 -7z"/>
<path d="M2565 663 c-14 -15 -25 -33 -25 -40 0 -21 49 -58 83 -63 26 -4 32
-10 32 -30 0 -31 -24 -37 -67 -16 -44 23 -59 5 -23 -28 34 -31 73 -33 109 -5
46 37 24 105 -37 111 -27 2 -32 7 -32 28 0 20 5 25 25 24 14 0 31 -3 39 -5 19
-5 27 31 9 42 -7 5 -30 9 -50 9 -28 0 -44 -7 -63 -27z"/>
<path d="M3348 685 c-3 -4 -23 -7 -43 -8 l-38 -3 -1 -134 -1 -135 28 -3 c26
-3 27 -1 27 37 0 45 2 46 31 30 26 -14 52 -4 89 32 24 24 30 39 30 72 0 55
-47 117 -89 117 -15 0 -30 -2 -33 -5z m65 -66 c33 -34 14 -93 -36 -112 -38
-14 -76 79 -49 119 18 27 55 24 85 -7z"/>
<path d="M3528 679 c-10 -5 -18 -18 -18 -28 0 -16 4 -17 41 -7 36 9 42 8 55
-9 22 -30 12 -40 -46 -45 -50 -5 -54 -7 -62 -35 -10 -39 -2 -62 28 -82 20 -13
31 -14 67 -4 23 6 51 10 62 8 14 -1 19 3 16 13 -3 8 -7 45 -10 81 -5 60 -18
91 -46 111 -14 11 -67 9 -87 -3z m82 -119 c17 -11 6 -36 -23 -54 -20 -13 -50
2 -55 28 -5 25 50 44 78 26z"/>
<path d="M3962 680 c-12 -5 -47 -7 -76 -5 l-54 5 -7 -40 c-4 -22 -11 -42 -16
-46 -5 -3 -9 -16 -9 -29 0 -30 -18 -42 -26 -18 -3 10 -10 27 -14 38 -5 11 -12
31 -16 45 -9 35 -23 50 -45 50 -21 0 -24 -11 -10 -38 6 -9 20 -39 32 -67 12
-27 25 -58 30 -67 14 -27 11 -39 -16 -64 -28 -26 -34 -64 -9 -64 24 0 71 56
80 92 3 18 10 39 14 48 25 53 39 88 44 113 6 27 24 37 28 15 1 -7 2 -49 2 -93
1 -79 1 -80 26 -80 24 0 25 3 30 78 5 71 15 97 40 97 25 0 35 -26 40 -97 4
-70 7 -78 25 -78 18 0 20 7 20 66 0 52 4 72 19 88 23 25 30 26 52 4 13 -14 15
-29 11 -78 -6 -66 2 -91 27 -82 23 9 15 171 -10 198 -22 25 -55 24 -87 -1
l-26 -21 -18 21 c-19 21 -44 24 -81 10z"/>
<path d="M4268 663 c-13 -16 -30 -42 -37 -59 -11 -27 -10 -37 4 -65 39 -77 99
-99 150 -55 22 19 27 28 18 37 -12 12 -25 9 -54 -13 -14 -9 -22 -8 -43 5 -47
31 -34 46 47 49 69 3 72 4 75 29 2 19 -7 37 -31 63 -44 46 -91 50 -129 9z
m106 -38 c9 -13 16 -27 16 -30 0 -3 -25 -5 -55 -5 -46 0 -55 3 -55 18 0 46 67
58 94 17z"/>
<path d="M4524 675 c-7 -17 -34 -21 -34 -5 0 6 -6 10 -13 10 -10 0 -16 -25
-20 -97 -7 -99 -1 -121 28 -110 12 5 15 20 13 71 -3 57 0 67 21 85 49 42 63
26 71 -79 4 -67 7 -75 25 -75 18 0 20 8 23 67 3 66 -14 122 -42 140 -20 13
-66 9 -72 -7z"/>
<path d="M4914 682 c-6 -4 -15 -17 -18 -30 -7 -21 -5 -22 21 -15 58 15 78 10
81 -19 3 -27 2 -28 -47 -28 -81 0 -108 -53 -53 -105 22 -21 34 -25 62 -21 19
3 36 10 38 16 5 13 32 13 32 0 0 -5 7 -10 16 -10 13 0 14 10 8 73 -8 82 -15
107 -39 130 -17 17 -81 23 -101 9z m85 -126 c19 -23 -18 -59 -52 -51 -35 9
-39 51 -4 58 40 8 44 7 56 -7z"/>
<path d="M5156 675 c-17 -17 -36 -20 -36 -5 0 6 -7 10 -15 10 -12 0 -15 -18
-15 -106 0 -95 2 -105 18 -102 14 3 18 17 22 72 4 61 8 71 33 90 l28 21 19
-25 c13 -17 20 -45 22 -90 2 -52 6 -65 21 -68 15 -3 17 6 17 78 0 67 -4 86
-22 110 -24 34 -66 40 -92 15z"/>
<path d="M5780 680 c-8 -5 -23 -7 -34 -4 -28 9 -36 -13 -36 -109 0 -71 3 -89
16 -94 25 -9 34 16 28 77 -6 50 -4 57 20 80 41 38 61 19 63 -61 0 -35 1 -72 2
-81 1 -27 38 -22 44 5 11 42 -10 170 -29 184 -21 15 -53 17 -74 3z"/>
<path d="M6144 654 c-28 -29 -34 -43 -34 -79 0 -38 5 -49 37 -80 32 -31 43
-36 70 -32 40 7 66 31 87 80 14 35 14 41 0 70 -42 83 -106 99 -160 41z m110
-46 c15 -34 12 -53 -12 -80 -20 -24 -47 -23 -72 2 -40 40 -13 110 43 110 22 0
31 -7 41 -32z"/>
<path d="M6444 656 c-29 -29 -34 -41 -34 -80 0 -39 5 -50 37 -81 43 -41 78
-45 116 -12 44 37 28 73 -18 43 -32 -21 -51 -20 -75 4 -28 28 -26 74 5 98 24
19 59 20 71 1 8 -14 44 -10 44 4 0 25 -45 57 -79 57 -24 0 -42 -9 -67 -34z"/>
<path d="M6770 675 c-9 -11 -16 -12 -30 -2 -11 6 -21 9 -23 7 -8 -9 -14 -188
-7 -200 5 -7 15 -10 25 -7 13 6 16 19 13 70 -2 53 1 67 19 86 15 16 28 21 42
16 18 -5 21 -16 23 -88 3 -74 5 -82 23 -82 17 0 20 8 23 60 4 79 -13 141 -42
149 -34 9 -53 7 -66 -9z"/>
<path d="M6944 663 c-25 -23 -29 -33 -29 -85 0 -53 3 -61 30 -83 35 -29 80
-32 94 -7 9 14 12 15 20 3 26 -39 -37 -71 -93 -47 -19 8 -37 12 -40 8 -13 -12
-5 -43 12 -48 9 -3 27 -11 40 -17 17 -8 28 -8 42 1 11 7 25 12 32 12 7 0 23
12 35 27 21 24 23 36 23 135 0 88 -3 110 -15 114 -8 4 -21 1 -29 -5 -10 -8
-16 -8 -26 4 -19 23 -64 18 -96 -12z m101 -38 c30 -30 32 -64 4 -99 -25 -32
-38 -33 -72 -3 -37 31 -37 78 -1 106 34 27 40 26 69 -4z"/>
<path d="M7280 681 l-35 -6 -3 -134 c-3 -139 4 -165 33 -141 11 10 15 23 11
42 -3 15 -3 35 1 43 5 14 8 13 25 -4 26 -28 41 -26 83 10 32 28 35 36 35 85 0
46 -4 58 -30 84 -30 31 -47 34 -120 21z m95 -56 c14 -14 25 -36 25 -47 0 -28
-38 -68 -63 -68 -53 0 -76 76 -37 118 27 29 43 28 75 -3z"/>
<path d="M7598 683 c-17 -4 -25 -33 -12 -45 3 -3 18 -1 34 5 24 9 32 8 49 -8
36 -32 27 -45 -32 -45 -59 0 -87 -19 -87 -58 0 -49 81 -90 113 -58 18 18 37
21 37 6 0 -5 7 -10 15 -10 12 0 15 15 15 78 0 72 -2 80 -29 110 -29 31 -55 38
-103 25z m83 -123 c5 0 9 -4 9 -10 0 -17 -34 -50 -51 -50 -22 0 -55 38 -43 49
12 12 46 20 62 15 8 -2 18 -4 23 -4z"/>
<path d="M8037 653 c-31 -31 -37 -43 -37 -80 0 -23 5 -43 10 -43 6 0 10 -6 10
-14 0 -18 60 -56 87 -56 24 0 74 44 92 82 18 35 8 69 -30 113 -43 49 -83 48
-132 -2z m115 -45 c14 -30 13 -35 -5 -65 -22 -39 -50 -43 -84 -11 -28 26 -29
51 -5 83 11 17 27 24 48 25 25 0 33 -6 46 -32z"/>
<path d="M8298 676 c-9 -10 -17 -10 -30 -3 -9 6 -20 8 -24 4 -4 -4 -8 -50 -9
-103 -2 -77 0 -97 12 -101 24 -9 34 18 27 74 -6 50 -5 53 30 85 20 18 36 36
36 39 0 14 -30 18 -42 5z"/>
<path d="M8420 673 c-17 -12 -25 -13 -28 -5 -2 7 -9 12 -16 12 -10 0 -15 -27
-18 -92 -6 -104 -4 -118 23 -118 17 0 19 8 19 65 0 52 4 70 22 90 12 14 28 25
35 25 21 0 35 -51 28 -103 -6 -53 5 -77 36 -77 17 0 19 8 19 74 0 65 3 77 22
90 15 11 26 12 40 5 15 -8 18 -22 18 -83 0 -49 4 -77 13 -85 25 -20 37 9 37
89 0 67 -3 78 -25 103 -31 33 -67 35 -95 5 l-20 -22 -20 22 c-25 26 -57 28
-90 5z"/>
<path d="M1519 660 c0 -11 -1 -49 -1 -85 0 -100 1 -105 16 -105 20 0 22 14 20
110 -3 107 -1 100 -19 100 -8 0 -15 -9 -16 -20z"/>
<path d="M5625 667 c-3 -7 -5 -54 -3 -103 3 -81 5 -89 23 -89 19 0 20 7 20
100 0 87 -2 100 -18 103 -9 2 -19 -3 -22 -11z"/>
<path d="M5900 677 c0 -6 27 -72 46 -114 8 -17 14 -35 14 -41 0 -16 41 -63 50
-57 10 6 40 64 40 77 0 5 8 28 19 51 34 77 35 87 9 87 -20 0 -27 -9 -41 -55
-9 -31 -17 -62 -17 -70 0 -8 -5 -15 -10 -15 -12 0 -29 36 -44 95 -9 33 -16 41
-38 43 -16 2 -28 1 -28 -1z"/>
<path d="M6347 673 c-2 -5 -4 -51 -3 -103 1 -82 3 -95 19 -98 15 -3 17 7 17
102 0 86 -3 106 -14 106 -8 0 -17 -3 -19 -7z"/>
<path d="M6620 575 c0 -96 2 -106 18 -103 15 3 17 16 17 103 0 87 -2 100 -17
103 -16 3 -18 -7 -18 -103z"/>
</g>
</svg>
