<?xml version="1.0" standalone="no"?>
<!DOCTYPE svg PUBLIC "-//W3C//DTD SVG 20010904//EN"
 "http://www.w3.org/TR/2001/REC-SVG-20010904/DTD/svg10.dtd">
<svg version="1.0" xmlns="http://www.w3.org/2000/svg"
 width="300.000000pt" height="308.000000pt" viewBox="0 0 300.000000 308.000000"
 preserveAspectRatio="xMidYMid meet">
<metadata>
Created by potrace 1.10, written by Peter Selinger 2001-2011
</metadata>
<g transform="translate(0.000000,308.000000) scale(0.100000,-0.100000)"
fill="#1d3557" stroke="none">
<path d="M1420 2756 c0 -41 -2 -45 -32 -55 -113 -39 -176 -147 -148 -252 16
-58 79 -120 145 -143 144 -49 201 -96 191 -155 -8 -52 -45 -83 -103 -88 -45
-5 -53 -2 -85 26 -47 41 -68 41 -68 -1 0 -44 31 -92 70 -109 32 -14 32 -14 26
-70 l-7 -57 46 -6 c25 -4 49 -4 55 -1 5 3 10 30 10 59 0 53 0 53 39 64 57 18
116 86 131 153 29 129 -47 223 -213 265 -87 22 -127 53 -127 101 0 45 14 69
50 88 45 23 103 19 159 -12 41 -24 51 -26 65 -14 37 31 5 96 -65 131 -37 20
-39 22 -39 70 l0 50 -50 0 -50 0 0 -44z m81 -23 c3 -24 7 -44 10 -46 2 -1 23
-15 47 -30 46 -30 72 -71 56 -87 -7 -7 -30 0 -70 20 -54 27 -63 29 -106 19
-63 -14 -108 -63 -108 -119 0 -60 29 -86 142 -124 54 -18 108 -41 122 -49 87
-57 107 -182 43 -271 -11 -16 -44 -39 -73 -53 -47 -21 -68 -44 -63 -69 1 -5 1
-21 0 -35 -1 -26 -2 -27 -57 -20 -6 1 -9 20 -7 50 4 46 2 50 -29 72 -18 13
-38 29 -45 35 -17 17 -28 64 -14 64 6 0 11 -4 11 -9 0 -15 67 -41 107 -41 49
0 110 40 119 78 3 15 8 34 10 43 12 44 -58 115 -139 140 -111 36 -172 75 -175
113 0 5 -5 12 -10 15 -6 3 -13 25 -17 49 -9 61 27 137 83 176 24 16 45 26 48
23 13 -13 53 39 56 71 2 29 5 33 28 30 21 -3 26 -9 31 -45z"/>
<path d="M1015 2761 c-28 -54 -20 -84 32 -125 25 -20 50 -36 54 -36 4 0 18 19
32 42 l25 42 -46 41 c-79 70 -79 70 -97 36z m68 -41 c18 -16 35 -30 40 -30 4
0 1 -13 -8 -30 l-15 -30 -40 26 c-39 26 -47 45 -34 78 9 23 21 20 57 -14z"/>
<path d="M1815 2741 c-22 -10 -49 -26 -60 -34 -19 -15 -19 -15 8 -56 15 -22
31 -41 35 -41 4 1 40 18 81 39 l73 37 -35 37 c-39 42 -47 44 -102 18z m93 -39
c5 -16 -105 -69 -117 -57 -5 6 -12 20 -16 33 -5 19 -2 23 24 28 17 4 31 10 31
15 0 25 69 8 78 -19z"/>
<path d="M870 2353 c0 -13 6 -39 14 -57 12 -30 19 -34 65 -40 29 -4 56 -4 61
-1 6 3 10 28 10 55 0 56 0 55 -97 63 -50 4 -53 3 -53 -20z m123 -12 c12 -2 8
-48 -5 -59 -29 -23 -98 15 -98 54 0 10 62 13 103 5z"/>
<path d="M1890 2321 c0 -56 -1 -55 93 -66 55 -6 57 -6 57 18 0 42 -20 85 -43
91 -12 3 -41 6 -64 6 l-43 0 0 -49z m97 23 c22 -6 35 -36 26 -60 -4 -10 -13
-12 -27 -8 -11 4 -30 8 -41 9 -11 1 -23 3 -27 4 -5 0 -8 15 -8 31 0 26 4 30
28 30 15 0 37 -3 49 -6z"/>
<path d="M2125 2140 c-11 -4 -33 -22 -50 -40 l-30 -31 -3 -163 -3 -163 -24 5
c-14 2 -37 1 -52 -3 -39 -9 -409 -377 -434 -430 -22 -48 -27 -244 -6 -284 33
-66 64 -19 73 114 4 56 13 113 22 130 37 74 345 375 384 375 18 0 38 -20 38
-38 0 -8 -43 -58 -95 -111 -52 -54 -95 -103 -95 -109 0 -52 201 70 263 159 23
32 21 97 -3 136 -15 26 -17 38 -9 65 5 18 14 87 20 153 6 66 16 126 21 133 13
15 50 16 66 0 9 -9 12 -85 12 -282 0 -242 -2 -275 -19 -312 -10 -22 -70 -94
-132 -160 -179 -186 -179 -186 -169 -230 11 -47 24 -61 44 -45 8 7 18 22 22
33 3 11 71 83 150 160 190 185 189 183 189 403 1 94 4 229 9 300 7 116 5 134
-11 165 -34 65 -114 97 -178 70z m115 -37 c49 -29 54 -48 46 -210 -3 -81 -6
-215 -6 -296 1 -196 1 -196 -197 -392 -130 -129 -153 -148 -153 -126 0 25 7
33 168 198 40 41 86 92 101 113 16 22 30 37 33 35 8 -8 13 134 12 373 l0 244
-25 19 c-35 27 -64 23 -93 -12 -22 -26 -26 -41 -27 -97 -1 -88 -11 -154 -25
-159 -7 -2 -11 34 -11 117 0 66 4 120 8 120 5 0 9 11 9 25 0 53 101 83 160 48z
m-168 -353 c-2 -17 4 -46 14 -68 19 -40 20 -82 2 -115 -22 -42 -148 -143 -162
-130 -3 3 26 37 64 76 79 79 89 111 45 146 -45 34 -95 4 -244 -148 -134 -138
-199 -217 -210 -258 -6 -21 -11 -67 -11 -103 0 -112 -22 -145 -36 -54 -5 34
-3 48 7 55 11 7 11 9 1 9 -18 0 -9 107 13 150 25 49 392 410 418 411 12 1 33
2 47 3 16 1 29 10 38 29 17 35 20 34 14 -3z"/>
<path d="M653 2119 c-62 -39 -64 -55 -61 -391 4 -374 -8 -342 195 -538 79 -76
143 -144 143 -152 0 -15 19 -38 32 -38 11 0 38 56 38 79 0 11 -59 83 -144 174
-79 84 -150 167 -159 183 -22 43 -29 234 -15 427 10 139 15 170 29 177 10 6
22 5 32 -3 14 -10 17 -43 18 -232 1 -167 5 -227 16 -251 18 -40 209 -228 223
-219 5 3 10 13 10 21 0 27 -48 110 -103 177 -58 71 -64 97 -25 118 14 8 25 7
42 -5 26 -16 327 -329 352 -365 12 -16 19 -59 25 -138 8 -119 20 -152 53 -140
23 9 36 72 36 173 0 127 -19 162 -165 299 -64 59 -142 140 -176 180 -66 80
-116 109 -169 99 -17 -4 -33 -11 -36 -15 -13 -22 -22 -6 -13 24 5 17 14 83 19
145 9 103 8 118 -9 157 -32 72 -120 98 -188 54z m142 -35 c38 -41 42 -113 19
-296 -9 -66 2 -77 65 -64 46 9 52 8 85 -18 20 -15 48 -43 63 -63 16 -19 92
-100 171 -178 118 -117 145 -150 156 -186 13 -45 12 -139 -3 -232 0 -5 -5 -6
-10 -3 -5 3 -12 50 -16 103 -4 54 -13 112 -20 130 -23 54 -352 389 -393 400
-29 7 -70 -20 -78 -52 -7 -27 25 -86 72 -134 24 -24 57 -81 51 -88 -5 -4 -124
115 -148 148 -16 23 -18 46 -18 180 0 312 1 296 -23 319 -28 26 -60 26 -84 -1
-21 -24 -29 -115 -33 -384 -2 -211 5 -238 102 -342 39 -43 86 -91 103 -108 84
-79 137 -165 103 -165 -5 0 -9 3 -7 8 3 6 -219 231 -232 235 -3 0 -20 19 -39
42 -61 73 -62 78 -63 406 0 256 2 301 16 321 38 54 121 65 161 22z"/>
<path d="M1788 2012 c-9 -9 -21 -27 -27 -40 -15 -28 -11 -34 61 -94 43 -36 51
-39 64 -27 8 8 18 30 24 47 8 29 5 37 -20 65 -15 18 -41 40 -58 49 -28 17 -30
17 -44 0z m75 -50 c27 -26 33 -46 21 -76 -10 -25 -26 -19 -68 24 -35 36 -38
42 -28 65 13 29 32 25 75 -13z"/>
<path d="M1030 1977 c-36 -17 -67 -33 -69 -35 -9 -5 54 -63 75 -68 24 -6 124
40 124 57 0 19 -41 79 -53 78 -7 0 -41 -15 -77 -32z m98 -21 c9 -21 7 -25 -28
-45 -21 -11 -44 -21 -52 -21 -15 0 -55 37 -47 43 30 23 78 47 95 47 12 0 25
-10 32 -24z"/>
<path d="M420 410 l0 -170 35 0 35 0 0 59 0 60 34 -6 c79 -13 146 38 146 111
0 83 -49 116 -170 116 l-80 0 0 -170z m57 123 c-8 -10 -17 -31 -20 -48 -3 -24
-4 -22 -6 12 0 25 4 43 12 46 25 10 30 7 14 -10z m143 -8 c19 -22 8 -25 -12
-3 -10 10 -14 18 -9 18 5 0 14 -7 21 -15z m-23 -31 c15 -24 15 -29 2 -53 -12
-21 -23 -27 -62 -29 l-47 -3 0 55 0 56 45 0 c37 0 47 -4 62 -26z m40 -36 c-3
-8 -6 -5 -6 6 -1 11 2 17 5 13 3 -3 4 -12 1 -19z m-173 -31 c1 -8 8 -22 15
-31 12 -14 11 -19 -2 -34 -8 -9 -17 -33 -20 -52 -2 -19 -5 5 -5 54 -1 49 1 87
4 84 3 -4 6 -13 8 -21z m152 -25 c-18 -16 -18 -16 -6 6 6 13 14 21 18 18 3 -4
-2 -14 -12 -24z"/>
<path d="M785 503 c-16 -43 -46 -120 -66 -171 l-37 -93 36 3 c32 3 37 7 51 46
l15 42 57 0 57 0 18 -45 c15 -41 20 -45 50 -45 l33 0 -26 68 c-14 37 -42 112
-63 167 -35 92 -40 100 -66 103 -28 3 -31 -1 -59 -75z m84 9 c10 -25 10 -25
-3 -8 -9 11 -22 16 -31 13 -9 -4 -15 -1 -15 7 0 35 32 27 49 -12z m2 -89 l18
-53 -49 0 -48 0 19 53 c34 90 31 84 37 67 3 -8 13 -39 23 -67z m-99 -82 c-21
-22 -23 -21 -16 6 4 13 12 19 19 17 11 -4 10 -9 -3 -23z m158 8 c0 -11 -4 -17
-10 -14 -5 3 -10 13 -10 21 0 8 5 14 10 14 6 0 10 -9 10 -21z"/>
<path d="M1026 533 c15 -27 42 -74 61 -106 28 -49 33 -68 33 -123 l0 -64 35 0
35 0 0 62 c0 63 5 75 97 236 l25 42 -36 0 c-35 0 -37 -2 -76 -80 -22 -44 -42
-80 -45 -80 -3 0 -23 36 -45 80 -39 77 -41 80 -76 80 l-35 0 27 -47z m143
-151 c-5 -13 -10 -42 -10 -65 l-2 -42 -7 50 c-4 28 -10 57 -14 65 -4 11 0 15
18 15 21 0 22 -3 15 -23z"/>
<path d="M1505 566 c-39 -17 -55 -37 -62 -78 -7 -49 26 -84 101 -106 62 -18
84 -38 73 -66 -9 -22 -83 -21 -127 3 l-34 18 -14 -26 c-11 -22 -11 -27 4 -38
46 -33 146 -43 194 -18 36 19 50 43 50 88 0 44 -29 70 -99 91 -62 18 -81 31
-81 56 0 32 64 41 114 15 16 -9 30 -14 31 -13 1 2 8 14 15 27 14 27 7 35 -50
51 -46 13 -79 12 -115 -4z m-6 -42 c-28 -34 -15 -71 36 -103 18 -11 18 -11 -5
-5 -57 15 -78 67 -43 106 20 22 31 24 12 2z m124 -130 c18 -9 35 -22 39 -28 9
-14 -2 -57 -19 -74 -16 -17 -17 -8 -1 18 16 26 -4 62 -45 83 -18 9 -26 16 -19
16 7 1 27 -6 45 -15z"/>
<path d="M1883 418 c-35 -90 -63 -167 -63 -171 0 -5 14 -7 32 -5 27 3 33 9 47
46 l15 43 60 -3 59 -3 15 -42 c12 -39 17 -43 47 -43 l34 0 -26 68 c-14 37 -42
112 -63 167 -35 92 -40 100 -66 103 -29 3 -30 1 -91 -160z m117 100 c0 -5 -10
-6 -22 -2 -31 9 -35 14 -18 24 15 9 40 -4 40 -22z m20 -145 c0 -2 -22 -3 -49
-3 l-49 0 19 53 c11 28 22 59 25 67 4 9 16 -11 30 -50 13 -36 24 -66 24 -67z
m46 -38 l7 -30 -22 27 c-12 15 -19 33 -16 39 10 15 22 0 31 -36z m-152 27 c3
-5 -4 -16 -15 -25 -18 -16 -19 -16 -19 1 0 28 22 43 34 24z"/>
<path d="M2270 410 l0 -170 35 0 35 0 0 60 0 60 28 -6 c16 -3 47 -1 71 6 70
19 101 93 65 161 -21 41 -68 59 -159 59 l-75 0 0 -170z m56 121 c-21 -23 -22
-114 -1 -131 14 -11 14 -15 1 -29 -8 -9 -16 -34 -19 -56 -2 -22 -4 21 -5 95
-2 131 -1 136 19 137 20 2 20 1 5 -16z m163 -55 c-1 -19 -2 -19 -6 -1 -3 10
-12 31 -20 45 l-15 25 21 -24 c12 -13 20 -33 20 -45z m-49 29 c7 -8 13 -26 13
-40 0 -39 -21 -55 -68 -55 l-43 0 -4 55 -3 55 46 0 c29 0 51 -6 59 -15z m46
-82 c-10 -10 -19 5 -10 18 6 11 8 11 12 0 2 -7 1 -15 -2 -18z"/>
<path d="M1340 275 c0 -31 3 -35 25 -35 22 0 25 4 25 35 0 31 -3 35 -25 35
-22 0 -25 -4 -25 -35z"/>
<path d="M1732 275 c0 -32 3 -35 29 -35 26 0 29 3 29 35 0 32 -3 35 -29 35
-26 0 -29 -3 -29 -35z"/>
<path d="M2160 275 c0 -31 3 -35 25 -35 22 0 25 4 25 35 0 31 -3 35 -25 35
-22 0 -25 -4 -25 -35z"/>
<path d="M2560 275 c0 -31 3 -35 25 -35 22 0 25 4 25 35 0 31 -3 35 -25 35
-22 0 -25 -4 -25 -35z"/>
</g>
</svg>
